Coordinates
version=1
nRows=14
nColumns=28
inDegrees=yes

Units are S.I. units (second, meters, Newtons, ...)
Angles are in degrees.

endheader
time	pelvis_tilt	pelvis_list	pelvis_rotation	pelvis_tx	pelvis_ty	pelvis_tz	hip_flexion_r	hip_adduction_r	hip_rotation_r	knee_angle_r	ankle_angle_r	subtalar_angle_r	mtp_angle_r	hip_flexion_l	hip_adduction_l	hip_rotation_l	knee_angle_l	socket_flexion	socket_adduction	socket_rotation	socket_tx	socket_ty	socket_tz	foot_flex	lumbar_extension	lumbar_bending	lumbar_rotation
      0.00000000	      1.38847018	     -5.56188447	    -11.33399197	     -0.87422697	      0.99634808	      0.28021298	    -27.39497955	      6.25763182	      5.77183510	     -2.38340112	     11.52141355	     -6.57656396	      5.56752581	     25.21920619	    -11.99035476	    -10.55731869	     -4.98574100	      0.00000000	      0.00000000	      0.00000000	      0.00000000	     -0.00156109	      0.00000000	     -0.73903331	    -13.03558808	      2.67793486	     12.81466510
      0.00416667	      1.32101154	     -5.60266816	    -11.24818796	     -0.86865123	      0.99566609	      0.27982266	    -27.51056969	      6.27885029	      5.83436334	     -2.60785815	     11.46981001	     -6.57725686	      5.56800813	     25.07335756	    -11.90590299	    -10.55729222	     -4.97591575	      0.00000000	      0.00000000	      0.00000000	      0.00000000	     -0.00183152	      0.00000000	     -0.81192348	    -12.88996507	      2.72123723	     12.82240359
      0.00833333	      1.26229089	     -5.71095449	    -11.31339283	     -0.86291977	      0.99510832	      0.27947469	    -27.47906517	      6.29666227	      5.79520791	     -3.17809510	     11.24086917	     -6.65719445	      5.56992789	     24.77761524	    -11.92456364	    -10.57242560	     -4.75669827	      0.00000000	      0.00000000	      0.00000000	      0.00000000	     -0.00232730	      0.00000000	     -1.28151478	    -12.80982038	      2.85926566	     12.84863417
      0.01250000	      1.19759308	     -5.79661031	    -11.34170976	     -0.85699170	      0.99448189	      0.27912687	    -27.50011894	      6.30370314	      5.81370311	     -3.63440466	     11.08706266	     -6.69224331	      5.58855852	     24.52897359	    -11.91310775	    -10.56377831	     -4.64686384	      0.00000000	      0.00000000	      0.00000000	      0.00000000	     -0.00278405	      0.00000000	     -1.53901618	    -12.69565025	      2.96844377	     12.88256788
      0.01666667	      1.12668393	     -5.88525992	    -11.36044843	     -0.85088321	      0.99384860	      0.27873694	    -27.50427555	      6.31888813	      5.84164441	     -4.12900679	     10.92184752	     -6.72691058	      5.61011386	     24.28486099	    -11.89962493	    -10.55945666	     -4.55055184	      0.00000000	      0.00000000	      0.00000000	      0.00000000	     -0.00329809	      0.00000000	     -1.83319471	    -12.58076477	      3.07807399	     12.91876628
      0.02083333	      1.05340345	     -5.97999937	    -11.38655908	     -0.84463210	      0.99322451	      0.27839306	    -27.49054044	      6.33821964	      5.86426540	     -4.66867394	     10.73434346	     -6.76456670	      5.63741810	     24.02868713	    -11.89823703	    -10.54681939	     -4.45180323	      0.00000000	      0.00000000	      0.00000000	      0.00000000	     -0.00384472	      0.00000000	     -2.14434140	    -12.45840621	      3.19727885	     12.96155079
      0.02500000	      0.97285403	     -6.07131540	    -11.41069937	     -0.83827203	      0.99262683	      0.27800705	    -27.46015258	      6.35605514	      5.89494496	     -5.22373703	     10.52890587	     -6.80326513	      5.66946321	     23.77388969	    -11.88908127	    -10.51403389	     -4.36353540	      0.00000000	      0.00000000	      0.00000000	      0.00000000	     -0.00445176	      0.00000000	     -2.44667975	    -12.32560528	      3.31147837	     13.00753002
      0.02916667	      0.88649091	     -6.16408534	    -11.43757860	     -0.83183383	      0.99202060	      0.27762862	    -27.40939317	      6.37499514	      5.92945237	     -5.80560643	     10.30215571	     -6.85085277	      5.70571025	     23.52166405	    -11.88413814	    -10.46532843	     -4.28889686	      0.00000000	      0.00000000	      0.00000000	      0.00000000	     -0.00510734	      0.00000000	     -2.74718186	    -12.18893928	      3.42504757	     13.05351662
      0.03333333	      0.80269583	     -6.24733554	    -11.44989763	     -0.82530673	      0.99146304	      0.27724260	    -27.35038579	      6.39237937	      5.97286507	     -6.40708962	     10.05753856	     -6.90778032	      5.74243733	     23.26587256	    -11.86728929	    -10.39793801	     -4.22709491	      0.00000000	      0.00000000	      0.00000000	      0.00000000	     -0.00578194	      0.00000000	     -3.03932131	    -12.04025749	      3.52879988	     13.09344014
      0.03750000	      0.70532398	     -6.34236652	    -11.46921269	     -0.81874936	      0.99091527	      0.27686036	    -27.24079780	      6.42449044	      6.00271322	     -7.08204782	      9.75158538	     -6.99869617	      5.79605343	     23.02692843	    -11.86909170	    -10.35503047	     -4.18854191	      0.00000000	      0.00000000	      0.00000000	      0.00000000	     -0.00652161	      0.00000000	     -3.35151700	    -11.88624507	      3.64809350	     13.14092423
      0.04166667	      0.61309930	     -6.38785209	    -11.47559913	     -0.81207526	      0.99043394	      0.27649593	    -27.16018604	      6.41246138	      6.08279034	     -7.68048032	      9.48357287	     -7.06881534	      5.82749173	     22.76914291	    -11.82135378	    -10.21920515	     -4.13621315	      0.00000000	      0.00000000	      0.00000000	      0.00000000	     -0.00722886	      0.00000000	     -3.59589726	    -11.70886814	      3.71015772	     13.15972334
      0.04583333	      0.11396491	     -6.55497879	    -11.60779125	     -0.80547988	      0.98950752	      0.27620747	    -26.56865012	      6.58211924	      6.40300018	     -8.48484007	      8.73887276	     -7.72393438	      7.02166662	     22.98363342	    -12.01609556	    -10.15242531	     -4.23689704	      0.00000000	      0.00000000	      0.00000000	      0.00000000	     -0.00807969	      0.00000000	     -3.84612132	    -11.11594568	      3.99551018	     13.44465628
      0.05000000	      0.09360560	     -6.57277788	    -11.55438715	     -0.79874981	      0.98920759	      0.27574937	    -26.50868903	      6.55539409	      6.38900929	     -9.14906154	      8.35237387	     -7.83548831	      7.06589247	     22.66504852	    -11.90614477	    -10.06418963	     -4.20823002	      0.00000000	      0.00000000	      0.00000000	      0.00000000	     -0.00881268	      0.00000000	     -4.12319095	    -11.00093118	      4.03188997	     13.36384750
      0.05416667	      0.05387613	     -6.55932628	    -11.51954246	     -0.79204414	      0.98895350	      0.27542485	    -26.42995152	      6.51095058	      6.48067776	     -9.79792166	      8.01308054	     -7.90661672	      7.06647856	     22.36940203	    -11.79517108	     -9.87560614	     -4.19607568	      0.00000000	      0.00000000	      0.00000000	      0.00000000	     -0.00950033	      0.00000000	     -4.35330022	    -10.87177240	      3.98955453	     13.30872763
